# xmcd CD database file generated by Grip 3.0.0
# 
# Track frame offsets:
#       182
#       88307
#       192632
#       213827
# 
# Disc length: 3127 seconds
# 
# Revision: 2
# Processed by: cddbd v1.4PL0 Copyright (c) Steve Scherf et al.
# Submitted via: Grip 3.0.0
# 
DISCID=370c3504
DTITLE=Current 93 - Live at Bar Maldoror
DYEAR=1992
DGENRE=Noise
TTITLE0=Alone into the Alone
TTITLE1=Only Shadows of Hooks
TTITLE2=Christ's First howling
TTITLE3=Fields of Rape
EXTD=
EXTT0=
EXTT1=
EXTT2=
EXTT3=
PLAYORDER=
